<svg width="379" height="259" viewBox="0 0 379 259" fill="none" xmlns="http://www.w3.org/2000/svg">
<g clip-path="url(#clip0_1_226)">
<path opacity="0.1" d="M69.3268 142.235C79.635 155.328 74.8777 174.84 68.3275 190.158C66.1344 195.286 64.4041 200.632 65.3295 206.132C66.461 212.857 72.0124 217.503 78.3208 220.109C89.8209 224.861 103.73 223.681 114.297 217.114C123.429 211.439 129.993 202.563 139.28 197.146C154.823 188.082 174.368 190.902 191.245 197.146C203.186 201.564 216.356 207.754 228.221 203.137C236.569 199.888 242.065 191.55 245.209 183.169C246.728 179.123 248.306 175.394 251.205 172.187C252.929 170.28 254.897 168.336 257.201 167.195C278.241 156.774 304.721 162.779 325.156 151.221C338.957 143.415 348.226 128.637 352.138 113.282C356.05 97.9279 355.13 81.1726 354.137 65.3598C353.431 54.1223 352.33 42.0846 345.143 33.4115C337.539 24.2366 324.959 20.6854 313.164 22.4293C301.369 24.1731 290.591 31.0828 281.185 38.4034C269.431 47.5527 258.642 58.6585 244.21 62.3646C234.382 64.8886 223.367 63.8411 213.231 63.363C196.285 62.5638 179.118 64.4119 162.265 66.3582C146.131 68.2214 130.666 70.1006 115.296 75.3436C104.419 79.054 95.5866 85.6141 85.3162 90.3194C78.6215 93.3865 70.6687 94.4 64.3302 98.3065C56.522 103.119 49.3382 111.475 51.3388 121.269C53.2409 130.581 63.8557 135.287 69.3268 142.235Z" fill="#04BF94"/>
<path opacity="0.1" d="M371 173.804C371 173.804 311.812 158.263 235 197.864C158.188 237.465 74.3795 167.472 76 156.761C77.6205 146.049 20 156.761 20 156.761V252H371V173.804Z" fill="#04BF94"/>
<path d="M330 32C321.163 32 314 24.8366 314 16C314 7.16344 321.163 0 330 0C338.837 0 346 7.16344 346 16C346 24.8366 338.837 32 330 32Z" fill="#FFDF9C"/>
<path d="M217.11 82L219.147 98.0235C219.147 98.0235 222.542 108.798 222.202 114.047C221.862 119.296 222.202 127.066 222.202 127.066C222.202 127.066 230.021 141.191 223.221 147.095C216.42 153 215.074 128.067 215.074 128.067C215.074 128.067 216.435 117.621 214.055 112.044C211.675 106.467 211 95.0191 211 95.0191L217.11 82Z" fill="#FFCDD3"/>
<path opacity="0.05" d="M217.11 82L219.147 98.0235C219.147 98.0235 222.542 108.798 222.202 114.047C221.862 119.296 222.202 127.066 222.202 127.066C222.202 127.066 230.021 141.191 223.221 147.095C216.42 153 215.074 128.067 215.074 128.067C215.074 128.067 216.435 117.621 214.055 112.044C211.675 106.467 211 95.0191 211 95.0191L217.11 82Z" fill="black"/>
<path d="M177.895 139L172.878 156L168.864 176C168.864 176 166.546 180.173 168.864 189L161.839 214C161.839 214 157.464 229.673 154.815 230C152.166 230.327 156.822 242 156.822 242L164.85 238C164.85 238 166.215 228.288 168.864 226C171.513 223.712 179.902 200 179.902 200L182.913 184C182.913 184 190.681 162.231 197.965 157C205.25 151.769 208 144 208 144L177.895 139Z" fill="#FFCDD3"/>
<path opacity="0.05" d="M208 144C208 144 205.25 151.769 197.965 157C190.681 162.231 182.913 184 182.913 184L179.902 200C179.902 200 171.513 223.712 168.864 226C166.92 227.68 165.555 233.071 164.85 236C164.592 237.062 164.85 238 164.85 238L156.822 242C156.822 242 152.166 230.327 154.815 230C155.226 229.951 155.348 228.673 155.818 228C158.368 224.332 161.839 214 161.839 214L168.864 189C166.546 180.173 168.864 176 168.864 176L172.878 156L177.895 139L208 144Z" fill="black"/>
<path d="M250 229L247 235L236 234C236.362 232.304 235.962 230.734 236 229C236.104 225.272 236.074 219.82 233 216C227.453 209.102 219 192 219 192C219 192 209.958 182.613 208 179L192 152V149L188 145H215L222 171L227 181C227 181 237.758 190.964 242 211C242 211 246.305 224.016 249 228C249.168 228.263 249.784 228.776 250 229Z" fill="#FFCDD3"/>
<path opacity="0.1" d="M165 236C164.735 237.096 165 238 165 238L156.873 242C156.873 242 152.12 229.337 154.841 229C155.263 228.949 155.374 228.695 155.857 228C156.21 228.21 156.716 228.621 156.873 229C157.03 229.379 156.974 229.603 156.873 230C156.766 230.504 156.106 231.549 155.857 232C154.836 233.687 159.92 236 159.92 236C161.41 237.899 163.398 237.022 165 236Z" fill="black"/>
<path d="M157.057 229.827C157.495 227.912 155.374 227.381 154.081 228.818C153.751 229.178 153.329 229.398 153.088 229.827C151.812 232.152 142.106 233.519 140.191 232.855C138.275 232.19 131.65 231.91 133.246 236.891C134.842 241.872 164.002 249 164.002 249C164.002 249 167.297 244.248 166.978 240.927C166.793 238.718 166.793 237.082 166.978 234.873C166.978 234.873 162.268 238.87 160.033 235.882C160.033 235.882 156.099 233.506 157.057 231.846C157.291 231.401 156.957 230.324 157.057 229.827Z" fill="#DCE6F2"/>
<path opacity="0.1" d="M250 228.055L247 234L236 233.009C236.353 231.428 236.963 229.672 237 228.055C237.114 227.836 236.794 227.208 237 227.065C237.206 226.921 237.749 227.099 238 227.065C238.251 227.03 238.761 226.983 239 227.065C239.239 227.147 238.828 226.885 239 227.065C239.592 227.677 240.558 228.513 241 229.046C242.273 230.577 246 230.037 246 230.037C247.072 230.38 248.09 228.44 249 227.065C249.164 227.309 249.79 227.846 250 228.055Z" fill="black"/>
<path d="M239.205 228.006C239.473 228.09 239.015 227.79 239.205 228.006C238.937 227.921 238.489 227.935 238.217 228.006C237.945 228.076 237.429 227.8 237.229 228.006C237.029 228.211 237.301 228.725 237.229 229.008C236.651 231.368 235.052 234.873 232.289 236.028C227.522 238.019 220.185 241.063 222.41 244.05C224.634 247.037 232.531 249.381 239.205 247.058C245.879 244.735 256 239.036 256 239.036L251.06 226C251.06 226 249.015 231.678 247.108 231.014C247.108 231.014 242.452 231.67 241.181 230.011C240.738 229.433 239.795 228.671 239.205 228.006Z" fill="#DCE6F2"/>
<path d="M195 43.8988C195 43.8988 203 55.3133 201 62.6584C199 70.0035 217 57.7217 217 57.7217C217 57.7217 207.333 49.0934 209 36L195 43.8988Z" fill="#FFCDD3"/>
<path d="M221 147.074C207.874 154.88 192 151.071 192 151.071V149.072C191.77 149.095 191.223 149.053 191 149.072C178.455 150.172 176 146.075 176 146.075C177.962 140.608 179.042 129.059 180 120.099C180.138 118.811 180.885 118.256 181 117.102C181.259 114.49 180.875 111.594 181 110.108C181.108 108.801 182 108.11 182 108.11L183 99.118C183 99.118 186.641 86.9423 185 79.1363C183.603 72.488 187.619 69.7115 189 69.1455C189.217 69.0625 189.773 69.1932 190 69.1455C191.8 68.7226 194.295 67.105 196 65.1491C198.486 62.3272 201.449 60.4151 205 59.1546C206.651 58.5594 208 57.1564 208 57.1564C210.297 54.5545 216 57.1564 216 57.1564C223.547 62.0351 220 77.1382 220 77.1382L217 86.1299C215.251 91.0769 212.875 95.7165 210 100.117C205.176 107.494 211 118.101 211 118.101C221.173 126.232 221 147.074 221 147.074Z" fill="#FF8AA1"/>
<path opacity="0.05" d="M193 131.914L192 149.812C179.13 150.913 176 146.829 176 146.829C178.013 141.351 180.017 129.954 181 120.977C181.141 119.687 180.882 118.157 181 117L193 131.914Z" fill="black"/>
<path opacity="0.1" d="M213.82 85.0775C213.82 85.0775 207.804 96.1808 205.864 101.042C203.924 105.903 203.85 104.411 202.88 106.031C201.91 107.651 191.94 115.011 191.94 115.011L181 120C181.443 115.813 181.817 112.158 181.995 110.022L191.94 103.038C191.94 103.038 198.579 99.567 198.902 94.0576C199.225 88.5482 203.875 78.093 203.875 78.093C203.875 78.093 212.253 68.891 215.81 73.1041C219.366 77.3172 213.82 85.0775 213.82 85.0775Z" fill="black"/>
<path d="M203.887 76.1062C203.887 76.1062 199.25 86.5705 198.924 92.0985C198.599 97.6266 191.976 101.094 191.976 101.094L170.137 116.087C170.137 116.087 151.049 121.927 157.233 129.081C163.417 136.235 173.115 121.085 173.115 121.085L190.983 113.088C190.983 113.088 201.918 105.719 202.895 104.093C203.871 102.467 203.92 103.973 205.873 99.0952C207.826 94.2175 213.814 83.1029 213.814 83.1029C213.814 83.1029 219.379 75.3359 215.799 71.1086C212.219 66.8813 203.887 76.1062 203.887 76.1062Z" fill="#FFCDD3"/>
<path opacity="0.1" d="M201 81C201 81 207.667 75.6667 209 74C209.589 73.2642 210.163 73.649 211 74C212.561 74.669 214.308 75.1318 216 75C217.458 74.875 219.167 75.1667 219 76C218.667 77.6667 220 67 220 67L214 65L207 69L201 81Z" fill="black"/>
<path d="M201 80C201 80 207.667 74.6667 209 73C209.589 72.2642 210.163 72.649 211 73C212.561 73.669 214.308 74.1318 216 74C217.458 73.875 219.167 74.1667 219 75C218.667 76.6667 220 66 220 66L214 64L207 68L201 80Z" fill="#FF8AA1"/>
<path opacity="0.1" d="M186 80C187.119 80.4389 188.782 81.0666 190 80.9943C191.218 80.9219 191.955 80.5674 193 80" fill="black"/>
<path opacity="0.1" d="M207 37.9977C206.756 36.1374 208.725 39.159 209 37L195 44.9814C195 44.9814 195.978 46.3135 197 47.9745C197.53 48.0323 197.466 47.9737 198 47.9745C202.212 47.9745 204.406 40.7874 207 37.9977Z" fill="black"/>
<path d="M199 47C190.992 47 184 40.732 184 33C184 25.268 190.992 19 199 19C207.008 19 213 25.268 213 33C213 40.732 207.008 47 199 47Z" fill="#FFCDD3"/>
<path opacity="0.1" d="M192.063 34.0629C192.17 34.9423 191.639 35.2688 192.063 36.0494C192.657 37.1424 193.978 37.3854 195.048 38.0358C199.388 40.6718 200.412 47.1037 199.029 51.941C198.54 53.6527 197.713 55.157 198.034 56.9071C198.585 59.9147 202.907 61.6061 205.995 61.8732C209.083 62.1403 212.064 61.7557 214.952 62.8664C219.802 64.7318 221.776 70.6576 225.898 73.7919C230.694 77.4374 237.771 77.3429 243.811 77.7648C246.045 77.9208 248.584 78.2053 250.778 77.7648C252.971 77.3243 254.978 75.8628 255.753 73.7919C256.847 70.8699 254.086 67.9672 251.773 65.8461C249.46 63.725 247.111 61.7278 245.802 58.8935C244.041 55.0836 245.031 49.5538 242.816 45.9816C242.414 45.2568 242.586 45.3195 241.821 44.9884C240.846 44.6272 238.882 44.9531 237.84 44.9884C233.807 45.1251 230.757 41.5602 228.884 38.0358C227.01 34.5115 226.616 30.7131 224.903 27.1104C222.965 23.0331 219.152 18.9478 214.952 17.1781C212.491 16.1414 209.559 15.9294 206.99 15.1917C204.07 14.3532 202.02 12.7555 199.029 12.212C196.038 11.6685 192.259 12.1144 190.073 14.1984C188.014 16.1599 187.064 19.101 185.097 21.151C184.353 21.9259 183.464 23.124 183.106 24.1307C182.259 26.5155 186.71 26.1555 188.082 27.1104C189.102 27.8115 189.423 29.0424 190.073 30.09C190.722 31.1377 191.893 32.8451 192.063 34.0629Z" fill="black"/>
<path d="M193.063 34.0629C193.17 34.9423 192.639 35.2688 193.063 36.0494C193.657 37.1424 194.978 37.3854 196.048 38.0358C200.388 40.6718 201.412 47.1037 200.029 51.941C199.54 53.6527 198.713 55.157 199.034 56.9071C199.585 59.9147 203.907 61.6061 206.995 61.8732C210.083 62.1403 213.064 61.7557 215.952 62.8664C220.802 64.7318 222.776 70.6576 226.898 73.7919C231.694 77.4374 238.771 77.3429 244.811 77.7648C247.045 77.9208 249.584 78.2053 251.778 77.7648C253.971 77.3243 255.978 75.8628 256.753 73.7919C257.847 70.8699 255.086 67.9672 252.773 65.8461C250.46 63.725 248.111 61.7278 246.802 58.8935C245.041 55.0836 246.031 49.5538 243.816 45.9816C243.414 45.2568 243.586 45.3195 242.821 44.9884C241.846 44.6272 239.882 44.9531 238.84 44.9884C234.807 45.1251 231.757 41.5602 229.884 38.0358C228.01 34.5115 227.616 30.7132 225.903 27.1104C223.965 23.0331 220.151 18.9478 215.952 17.1781C213.491 16.1414 210.559 15.9294 207.99 15.1917C205.07 14.3532 203.02 12.7555 200.029 12.212C197.038 11.6685 193.259 12.1144 191.073 14.1984C189.014 16.1599 188.064 19.101 186.097 21.151C185.353 21.9259 184.464 23.124 184.106 24.1307C183.259 26.5155 187.71 26.1555 189.082 27.1104C190.102 27.8115 190.423 29.0424 191.073 30.09C191.722 31.1377 192.893 32.8451 193.063 34.0629Z" fill="#2C2C34"/>
<path d="M360.297 252.974C360.297 252.974 370.353 233.389 357.322 218.188C344.291 202.988 330.543 211.231 330.543 211.231C330.543 211.231 311.216 220.373 315.665 242.041C315.665 242.041 317.956 253.621 325.584 252.974H360.297Z" fill="#04BF94"/>
<path opacity="0.2" d="M360.297 252.974C360.297 252.974 370.353 233.389 357.322 218.188C344.291 202.988 330.543 211.231 330.543 211.231C330.543 211.231 311.216 220.373 315.665 242.041C315.665 242.041 317.956 253.621 325.584 252.974H360.297Z" fill="white"/>
<path d="M343 253L331 217" stroke="#535461" stroke-width="0.324209" stroke-miterlimit="10"/>
<path d="M321 222C321 222 327.041 219.475 333 221C333 221 335.986 213.25 343 212" stroke="#535461" stroke-width="0.324209" stroke-miterlimit="10"/>
<path d="M317 235C317 235 327.511 227.71 335 230.01C335 230.01 343.182 219.367 349 220.03" stroke="#535461" stroke-width="0.324209" stroke-miterlimit="10"/>
<path d="M319 248C319 248 328.047 241.571 339 242C339 242 347.145 231.667 355 231" stroke="#535461" stroke-width="0.324209" stroke-miterlimit="10"/>
<path d="M338 252C339.318 251.306 340.587 250.313 342 249.915C342 249.915 348.734 241.573 362 244.703" stroke="#535461" stroke-width="0.324209" stroke-miterlimit="10"/>
<path d="M244.104 252C244.104 252 233.428 234.892 260.173 209C286.918 183.108 285.555 177.884 283.272 174C283.272 174 303.907 176.959 299.34 209C294.774 241.041 275.237 252 275.237 252H244.104Z" fill="#04BF94"/>
<path d="M258 252C258 252 265.798 228.917 278.032 215C290.265 201.083 288.32 178.207 282.038 174" stroke="#535461" stroke-width="0.648418" stroke-miterlimit="10"/>
<path d="M69 45C73.6944 49.9706 74 58 74 58C74 58 66.6944 57.9706 62 53C57.3056 48.0294 57 40 57 40C57 40 64.3056 40.0294 69 45Z" fill="#04BF94"/>
<path d="M353 119C357.694 123.971 358 132 358 132C358 132 350.694 131.971 346 127C341.306 122.029 341 114 341 114C341 114 348.306 114.029 353 119Z" fill="#0CA481"/>
<path d="M87 135C91.6944 139.971 92 148 92 148C92 148 84.6944 147.971 80 143C75.3056 138.029 75 130 75 130C75 130 82.3056 130.029 87 135Z" fill="#04BF94"/>
<path d="M321 129.126C327.351 126.592 334 129.126 334 129.126C334 129.126 330.351 136.34 324 138.874C317.649 141.408 311 138.874 311 138.874C311 138.874 314.649 131.66 321 129.126Z" fill="#04BF94"/>
<path d="M242.031 120C245.714 114.201 252.946 112 252.946 112C252.946 112 253.652 119.201 249.969 125C246.286 130.799 239.054 133 239.054 133C239.054 133 238.348 125.799 242.031 120Z" fill="#FFD037"/>
<path d="M154 147C152.343 147 151 145.657 151 144C151 142.343 152.343 141 154 141C155.657 141 157 142.343 157 144C157 145.657 155.657 147 154 147Z" fill="#FC6681"/>
<path d="M147 177C145.343 177 144 175.657 144 174C144 172.343 145.343 171 147 171C148.657 171 150 172.343 150 174C150 175.657 148.657 177 147 177Z" fill="#FC6681"/>
<path d="M207.139 182.596C207.139 182.596 217.251 170.469 221.179 185.613C225.106 200.758 227.363 202.639 235.218 198.688C243.073 194.738 251.521 212.346 232.21 225.844C212.899 239.343 224.187 253 224.187 253H154.993C154.993 253 146.058 226.011 166.024 216.792C185.989 207.574 184.729 200.866 184.075 191.648C183.42 182.429 207.139 182.596 207.139 182.596Z" fill="#04BF94"/>
<path d="M216 178C216 178 172.16 236.736 187.107 253" stroke="#535461" stroke-width="0.648418" stroke-miterlimit="10"/>
<path d="M227 198.896C227 198.896 216.065 208.179 199.271 203.849C182.477 199.519 186.397 188 186.397 188" stroke="#535461" stroke-width="0.648418" stroke-miterlimit="10"/>
<path d="M155 228C155 228 178.444 216.895 190 221C220.088 231.688 242 203 242 203" stroke="#535461" stroke-width="0.648418" stroke-miterlimit="10"/>
<path d="M221 253C221 253 207.432 242.391 224.999 206C224.999 206 248.421 177.293 224.999 150C224.999 150 275.962 151.562 274.986 199C274.01 246.438 248.993 253 248.993 253H221Z" fill="#04BF94"/>
<path d="M234.993 253C234.993 253 238.703 228.271 247.984 213C249.816 209.914 251.231 206.521 251.981 203C255.084 189.149 251.01 173.913 240.989 164L226 150" stroke="#535461" stroke-width="0.648418" stroke-miterlimit="10"/>
<path opacity="0.1" d="M221 253C221 253 207.432 242.391 224.999 206C224.999 206 248.421 177.293 224.999 150C224.999 150 275.962 151.562 274.986 199C274.01 246.438 248.993 253 248.993 253H221Z" fill="black"/>
<path d="M97.2258 251.571C97.2258 251.571 144.848 240.942 84.1912 179C84.1912 179 58.5563 204.074 68.1486 234.671C72.0052 246.973 84.6602 254.999 97.2258 252.565C97.4611 252.52 96.9874 251.622 97.2258 251.571Z" fill="#04BF94"/>
<path opacity="0.4" d="M96.0006 251.571C97.0347 251.339 142.929 239.894 84.0211 179C84.0211 179 57.5742 204.074 67.0502 234.671C70.8601 246.973 83.5872 254.999 96.0006 252.565C96.233 252.52 95.765 251.622 96.0006 251.571Z" fill="white"/>
<path d="M96 252C96 252 70.5649 214.261 83.8334 179" stroke="#535461" stroke-width="0.324209" stroke-miterlimit="10"/>
<path d="M294.226 251.571C294.226 251.571 341.848 240.942 281.191 179C281.191 179 255.556 204.074 265.149 234.671C269.005 246.973 281.66 254.999 294.226 252.565C294.461 252.52 293.987 251.622 294.226 251.571Z" fill="#04BF94"/>
<path opacity="0.4" d="M294.001 251.571C295.035 251.339 340.929 239.894 282.021 179C282.021 179 255.574 204.074 265.05 234.671C268.86 246.973 281.587 254.999 294.001 252.565C294.233 252.52 293.765 251.622 294.001 251.571Z" fill="white"/>
<path d="M294 252C294 252 268.565 214.261 281.833 179" stroke="#535461" stroke-width="0.324209" stroke-miterlimit="10"/>
<path d="M187.226 251.571C187.226 251.571 234.848 240.942 174.191 179C174.191 179 148.556 204.074 158.149 234.671C162.005 246.973 174.66 254.999 187.226 252.565C187.461 252.52 186.987 251.622 187.226 251.571Z" fill="#04BF94"/>
<path opacity="0.4" d="M187.001 251.571C188.035 251.339 233.929 239.894 175.021 179C175.021 179 148.574 204.074 158.05 234.671C161.86 246.973 174.587 254.999 187.001 252.565C187.233 252.52 186.765 251.622 187.001 251.571Z" fill="white"/>
<path d="M187 252C187 252 161.565 214.261 174.833 179" stroke="#535461" stroke-width="0.324209" stroke-miterlimit="10"/>
<path d="M41.2258 251.571C41.2258 251.571 88.848 240.942 28.1912 179C28.1912 179 2.55632 204.074 12.1486 234.671C16.0052 246.973 28.6602 254.999 41.2258 252.565C41.4611 252.52 40.9874 251.622 41.2258 251.571Z" fill="#04BF94"/>
<path opacity="0.4" d="M41.0006 251.571C42.0347 251.339 87.9289 239.894 29.0211 179C29.0211 179 2.57416 204.074 12.0502 234.671C15.8601 246.973 28.5872 254.999 41.0006 252.565C41.233 252.52 40.765 251.622 41.0006 251.571Z" fill="white"/>
<path d="M40 252C40 252 14.5649 214.261 27.8334 179" stroke="#535461" stroke-width="0.324209" stroke-miterlimit="10"/>
<path d="M130.226 251.571C130.226 251.571 177.848 240.942 117.191 179C117.191 179 91.5563 204.074 101.149 234.671C105.005 246.973 117.66 254.999 130.226 252.565C130.461 252.52 129.987 251.622 130.226 251.571Z" fill="#04BF94"/>
<path opacity="0.4" d="M129.001 251.571C130.035 251.339 175.929 239.894 117.021 179C117.021 179 90.5742 204.074 100.05 234.671C103.86 246.973 116.587 254.999 129.001 252.565C129.233 252.52 128.765 251.622 129.001 251.571Z" fill="white"/>
<path d="M129 252C129 252 103.565 214.261 116.833 179" stroke="#535461" stroke-width="0.324209" stroke-miterlimit="10"/>
<path d="M295.201 248.925C293.811 247.785 292.635 246.487 292.234 244.85C292.028 243.984 291.831 242.575 292.234 241.794C292.637 241.012 293.422 241.041 294.212 240.775C296.199 240.105 298.537 240.567 300.147 241.794C301.757 243.021 303.975 245.11 306.082 244.85C303.899 243.145 302.513 240.235 303.115 237.719C303.217 237.176 303.732 237.081 304.104 236.7C305.207 235.66 306.74 235.88 308.06 236.7C312.26 239.306 313.972 244.395 313.995 248.925C314.418 247.291 313.984 245.507 313.995 243.831C314.005 242.155 314.371 239.638 315.973 238.737C316.925 238.203 318.802 238.774 319.93 238.737C321.818 238.676 323.586 238.538 324.875 239.756C326.477 241.27 326.269 244.202 324.875 245.869C323.482 247.535 320.892 247.774 318.941 248.925C317.454 249.802 315.898 250.597 314.984 251.981C314.868 252.165 315.06 252.793 314.984 253H303.115C300.514 251.846 297.461 250.733 295.201 248.925Z" fill="#04BF94"/>
<path d="M95.2015 248.925C93.8109 247.785 92.6348 246.487 92.2341 244.85C92.0275 243.984 91.8314 242.575 92.2341 241.794C92.6368 241.012 93.4224 241.041 94.2124 240.775C96.1992 240.105 98.5375 240.567 100.147 241.794C101.757 243.021 103.975 245.11 106.082 244.85C103.899 243.145 102.513 240.235 103.115 237.719C103.217 237.176 103.732 237.081 104.104 236.7C105.207 235.66 106.74 235.88 108.06 236.7C112.26 239.306 113.972 244.395 113.995 248.925C114.418 247.291 113.984 245.507 113.995 243.831C114.005 242.155 114.371 239.638 115.973 238.737C116.925 238.203 118.802 238.774 119.93 238.737C121.818 238.676 123.586 238.538 124.875 239.756C126.477 241.27 126.269 244.202 124.875 245.869C123.482 247.535 120.892 247.774 118.941 248.925C117.454 249.802 115.898 250.597 114.984 251.981C114.868 252.165 115.06 252.793 114.984 253H103.115C100.514 251.846 97.4614 250.733 95.2015 248.925Z" fill="#04BF94"/>
<path d="M159.006 224C148.408 243.33 125.991 252 125.991 252C125.991 252 121.396 229.33 131.994 210C142.592 190.67 165.009 182 165.009 182C165.009 182 169.604 204.67 159.006 224Z" fill="#009C78"/>
<path d="M152 218.925C132.946 230.53 126 253.115 126 253.115C126 253.115 149.946 257.68 169 246.075C188.054 234.47 195 211.885 195 211.885C195 211.885 171.054 207.32 152 218.925Z" fill="#04BF94"/>
<path d="M220.006 224C209.408 243.33 186.991 252 186.991 252C186.991 252 182.396 229.33 192.994 210C203.592 190.67 226.009 182 226.009 182C226.009 182 230.604 204.67 220.006 224Z" fill="#009C78"/>
<path d="M213 218.925C193.946 230.53 187 253.115 187 253.115C187 253.115 210.946 257.68 230 246.075C249.054 234.47 256 211.885 256 211.885C256 211.885 232.054 207.32 213 218.925Z" fill="#04BF94"/>
<path d="M282.539 159C300.842 186.062 296.566 221 296.566 221C296.566 221 260.764 212.062 242.461 185C224.158 157.938 228.434 123 228.434 123C228.434 123 264.236 131.938 282.539 159Z" fill="#009C78"/>
<path d="M270.1 164C271.843 196.585 295.987 222 295.987 222C295.987 222 317.643 194.585 315.9 162C314.157 129.415 290.013 104 290.013 104C290.013 104 268.357 131.415 270.1 164Z" fill="#0CA481"/>
<path d="M25.0156 201.005C24.3348 237.958 45.9625 251.472 73.0045 251.972C73.6326 251.984 74.3817 251.975 75.004 251.972C76.2578 251.968 77.7743 252.037 79.0031 251.972C103.441 250.692 122.36 237.37 122.993 203.003C123.648 167.438 79.3446 121.439 76.0038 118.057C76.0067 118.06 76.0008 118.057 76.0038 118.057C76.0038 118.057 75.8768 117.928 76.0038 118.057C76.0038 118.057 25.6965 164.054 25.0156 201.005Z" fill="#04BF94"/>
<path d="M75 245.973L58 220.979L75 248.973V251.972C76.2555 251.968 77.7695 252.037 79 251.972L78 214.98L77 210.981L96 182.986L77 207.981V208.981L76 180.987L92 152.993L76 175.988V118L75 163.99L60 145.994L75 167.99V192.984L61 168.989L75 196.984V210.981L55 176.988L75 214.98V245.973Z" fill="#009C78"/>
<path d="M101.016 201.005C100.335 237.958 121.963 251.472 149.004 251.972C149.633 251.984 150.382 251.975 151.004 251.972C152.258 251.968 153.774 252.037 155.003 251.972C179.441 250.692 198.36 237.37 198.993 203.003C199.648 167.438 155.345 121.439 152.004 118.057C152.007 118.06 152.001 118.057 152.004 118.057C152.004 118.057 151.877 117.928 152.004 118.057C152.004 118.057 101.696 164.054 101.016 201.005Z" fill="#04BF94"/>
<path d="M151 245.973L134 220.979L151 248.973V251.972C152.256 251.968 153.77 252.037 155 251.972L154 214.98L153 210.981L172 182.986L153 207.981V208.981L152 180.987L168 152.993L152 175.988V118L151 163.99L136 145.994L151 167.99V192.984L137 168.989L151 196.984V210.981L131 176.988L151 214.98V245.973Z" fill="#009C78"/>
<path d="M10.0156 202.005C9.33477 238.958 30.9625 252.472 58.0045 252.972C58.6326 252.984 59.3817 252.975 60.004 252.972C61.2578 252.968 62.7743 253.037 64.0031 252.972C88.4412 251.692 107.36 238.37 107.993 204.003C108.648 168.438 64.3446 122.439 61.0038 119.057C61.0067 119.06 61.0008 119.057 61.0038 119.057C61.0038 119.057 60.8768 118.928 61.0038 119.057C61.0038 119.057 10.6965 165.054 10.0156 202.005Z" fill="#00AE86"/>
<path d="M60 246.973L43 221.979L60 249.973V252.972C61.2555 252.968 62.7695 253.037 64 252.972L63 215.98L62 211.981L81 183.986L62 208.981V209.981L61 181.987L77 153.993L61 176.988V119L60 164.99L45 146.994L60 168.99V193.984L46 169.989L60 197.984V211.981L40 177.988L60 215.98V246.973Z" fill="#009C78"/>
<path d="M281.016 201.005C280.335 237.958 301.963 251.472 329.004 251.972C329.633 251.984 330.382 251.975 331.004 251.972C332.258 251.968 333.774 252.037 335.003 251.972C359.441 250.692 378.36 237.37 378.993 203.003C379.648 167.438 335.345 121.439 332.004 118.057C332.007 118.06 332.001 118.057 332.004 118.057C332.004 118.057 331.877 117.928 332.004 118.057C332.004 118.057 281.696 164.054 281.016 201.005Z" fill="#04BF94"/>
<path d="M331 245.973L314 220.979L331 248.973V251.972C332.256 251.968 333.77 252.037 335 251.972L334 214.98L333 210.981L352 182.986L333 207.981V208.981L332 180.987L348 152.993L332 175.988V118L331 163.99L316 145.994L331 167.99V192.984L317 168.989L331 196.984V210.981L311 176.988L331 214.98V245.973Z" fill="#009C78"/>
<path d="M82 258C93.6454 256.018 105.247 254.422 116 253L111 245C112.433 244.5 119 249 119 249L113 225C120.209 225.873 124 250 124 250L132 242L129 251C161.912 247.106 190.092 246.052 214 246L210 239C211.433 238.5 218 243 218 243L212 219C219.209 219.873 223 244 223 244L231 236L227 246C247.043 246.403 263.384 247.433 276 249C272.32 237.96 260 228 260 228C269.548 230.853 274.383 235.543 277 240C277.234 217.22 273.601 194.463 266 173C266 173 285.518 216.041 283 245V250C299.73 252.407 308 255 308 255L82 258Z" fill="#009C78"/>
<path d="M44 256C55.6454 254.018 67.2466 252.422 78 251L73 243C74.4335 242.5 81 247 81 247L75 223C82.2095 223.873 86 248 86 248L94 240L91 249C123.912 245.106 152.092 244.052 176 244L172 237C173.433 236.5 180 241 180 241L174 217C181.209 217.873 185 242 185 242L193 234L189 244C209.043 244.403 225.384 245.433 238 247C234.32 235.96 222 226 222 226C231.548 228.853 236.383 233.543 239 238C239.234 215.22 235.601 192.463 228 171C228 171 247.518 214.041 245 243V248C261.73 250.407 270 253 270 253L44 256Z" fill="#009C78"/>
<path d="M0 259C11.6454 257.018 23.2466 255.422 34 254L29 246C30.4335 245.5 37 250 37 250L31 226C38.2095 226.873 42 251 42 251L50 243L47 252C79.9119 248.106 108.092 247.052 132 247L128 240C129.433 239.5 136 244 136 244L130 220C137.209 220.873 141 245 141 245L149 237L145 247C165.043 247.403 181.384 248.433 194 250C190.32 238.96 178 229 178 229C187.548 231.853 192.383 236.543 195 241C195.234 218.22 191.601 195.463 184 174C184 174 203.518 217.041 201 246V251C217.73 253.407 226 256 226 256L0 259Z" fill="#009C78"/>
<path d="M144 256C155.645 254.018 167.247 252.422 178 251L173 243C174.433 242.5 181 247 181 247L175 223C182.209 223.873 186 248 186 248L194 240L191 249C223.912 245.106 252.092 244.052 276 244L272 237C273.433 236.5 280 241 280 241L274 217C281.209 217.873 285 242 285 242L293 234L289 244C309.043 244.403 325.384 245.433 338 247C334.32 235.96 322 226 322 226C331.548 228.853 336.383 233.543 339 238C339.234 215.22 335.601 192.463 328 171C328 171 347.518 214.041 345 243V248C361.73 250.407 370 253 370 253L144 256Z" fill="#009C78"/>
</g>
<defs>
<clipPath id="clip0_1_226">
<rect width="379" height="259" fill="white" transform="matrix(-1 0 0 1 379 0)"/>
</clipPath>
</defs>
</svg>
