<svg width="24" height="24" viewBox="0 0 24 24" fill="none" xmlns="http://www.w3.org/2000/svg">
<path fill-rule="evenodd" clip-rule="evenodd" d="M13.936 12.9253C15.6844 10.472 15.1263 7.04096 12.9253 4.83994C10.4721 2.38669 7.2932 2.38669 4.83994 4.83994C2.38669 7.2932 2.38669 10.4721 4.83994 12.9253C7.04096 15.1263 10.472 15.6844 12.9253 13.936L18.9893 20L20 18.9893L13.936 12.9253ZM11.9146 5.85061C13.5501 7.48612 13.5501 10.2791 11.9146 11.9146C10.2791 13.5501 7.48612 13.5501 5.85061 11.9146C4.21511 10.2791 4.21511 7.48612 5.85061 5.85061C7.48612 4.21511 10.2791 4.21511 11.9146 5.85061Z" fill="#ADB8C8"/>
</svg>
